Coordinates
version=1
nRows=13
nColumns=27
inDegrees=yes

Units are S.I. units (second, meters, Newtons, ...)
If the header above contains a line with 'inDegrees', this indicates whether rotational values are in degrees (yes) or radians (no).

endheader
time	pelvis_rotation	pelvis_tilt	pelvis_list	pelvis_tx	pelvis_ty	pelvis_tz	hip_flexion_r	hip_adduction_r	hip_rotation_r	knee_angle_r	knee_rotation_r	knee_adduction_r	knee_angle_r_beta	ankle_angle_r	subtalar_angle_r	mtp_angle_r	hip_flexion_l	hip_adduction_l	hip_rotation_l	knee_angle_l	knee_rotation_l	knee_adduction_l	knee_angle_l_beta	ankle_angle_l	subtalar_angle_l	mtp_angle_l
      3.72000000	      8.07550118	    -37.75045589	      6.87455792	     -0.02645492	      0.63008321	     -1.12402732	    105.08865672	    -47.88142942	      2.45640108	     78.89238513	      0.00000000	      9.88290052	      1.37693188	      6.65233788	      0.00000000	      0.00000000	     97.55018405	    -34.88594417	     -6.92199446	     72.27278764	      0.00000000	     -9.90400105	      1.26139810	      2.33008692	      0.00000000	      0.00000000
      3.72500000	      8.07111059	    -37.77689561	      6.88400041	     -0.02650287	      0.62833439	     -1.12401009	    105.49812527	    -47.88673709	      2.78616761	     79.21179420	      0.00000000	      9.88359615	      1.38250662	      6.72799270	      0.00000000	      0.00000000	     97.86847795	    -35.01213774	     -6.80085807	     72.60006460	      0.00000000	     -9.90497370	      1.26711016	      2.37241178	      0.00000000	      0.00000000
      3.73000000	      8.10992151	    -37.74388821	      6.83139920	     -0.02642124	      0.62657606	     -1.12396842	    105.74895154	    -47.97443678	      2.98689812	     79.53946019	      0.00000000	      9.88443083	      1.38822547	      6.83202888	      0.00000000	      0.00000000	     98.20207869	    -35.09962640	     -6.58595819	     72.94436692	      0.00000000	     -9.90605494	      1.27311937	      2.41012319	      0.00000000	      0.00000000
      3.73500000	      8.10957963	    -37.82256281	      6.87771381	     -0.02654436	      0.62477151	     -1.12393901	    106.26850045	    -47.95156951	      3.38743542	     79.86442487	      0.00000000	      9.88515065	      1.39389717	      6.89598814	      0.00000000	      0.00000000	     98.56195562	    -35.22452987	     -6.48456415	     73.27119878	      0.00000000	     -9.90684342	      1.27882367	      2.44803934	      0.00000000	      0.00000000
      3.74000000	      8.15827742	    -37.79885501	      6.86586588	     -0.02647990	      0.62302860	     -1.12389214	    106.57426993	    -48.02103883	      3.65367875	     80.18369484	      0.00000000	      9.88590525	      1.39946948	      6.97859557	      0.00000000	      0.00000000	     98.86648486	    -35.29255320	     -6.30124114	     73.59354915	      0.00000000	     -9.90785513	      1.28444974	      2.49820777	      0.00000000	      0.00000000
      3.74500000	      8.21696552	    -37.82010369	      6.86222073	     -0.02645731	      0.62122265	     -1.12382875	    106.94687548	    -48.09165385	      3.93729131	     80.51548074	      0.00000000	      9.88671245	      1.40526024	      7.07114951	      0.00000000	      0.00000000	     99.23657636	    -35.35882980	     -6.10966220	     73.92803404	      0.00000000	     -9.90866706	      1.29028760	      2.53664333	      0.00000000	      0.00000000
      3.75000000	      8.21263043	    -37.82743189	      6.86012878	     -0.02640569	      0.61945253	     -1.12372419	    107.32131547	    -48.09139657	      4.25335412	     80.84549944	      0.00000000	      9.88729636	      1.41102015	      7.16045411	      0.00000000	      0.00000000	     99.54689735	    -35.49168785	     -5.97013187	     74.25376379	      0.00000000	     -9.90958153	      1.29597266	      2.57326760	      0.00000000	      0.00000000
      3.75500000	      8.23351458	    -37.82278413	      6.86398538	     -0.02635016	      0.61769837	     -1.12361874	    107.67876075	    -48.11303500	      4.56693239	     81.16955534	      0.00000000	      9.88792201	      1.41667599	      7.24918180	      0.00000000	      0.00000000	     99.84647675	    -35.59220671	     -5.82040597	     74.56355700	      0.00000000	     -9.91046069	      1.30137957	      2.60520171	      0.00000000	      0.00000000
      3.76000000	      8.26538758	    -37.83582139	      6.82927824	     -0.02624834	      0.61592721	     -1.12347871	    108.00509001	    -48.15973648	      4.81303809	     81.49958610	      0.00000000	      9.88865228	      1.42243612	      7.33480737	      0.00000000	      0.00000000	    100.21136516	    -35.68731269	     -5.60952008	     74.88951230	      0.00000000	     -9.91122277	      1.30706856	      2.61978239	      0.00000000	      0.00000000
      3.76500000	      8.24340635	    -37.85283758	      6.81524093	     -0.02618107	      0.61414695	     -1.12334731	    108.37728876	    -48.13564303	      5.12783129	     81.82642555	      0.00000000	      9.88916431	      1.42814054	      7.44367294	      0.00000000	      0.00000000	    100.53508722	    -35.83409102	     -5.45757412	     75.21262514	      0.00000000	     -9.91217112	      1.31270795	      2.65417463	      0.00000000	      0.00000000
      3.77000000	      8.33853147	    -37.82471433	      6.82949708	     -0.02606139	      0.61241792	     -1.12319778	    108.69059410	    -48.22872485	      5.41323983	     82.15369385	      0.00000000	      9.88997466	      1.43385245	      7.53549129	      0.00000000	      0.00000000	    100.82985153	    -35.86252522	     -5.27820164	     75.51259728	      0.00000000	     -9.91287872	      1.31794345	      2.68387652	      0.00000000	      0.00000000
      3.77500000	      8.38107612	    -37.83020220	      6.81643844	     -0.02595802	      0.61067148	     -1.12302498	    109.02512004	    -48.26830375	      5.68759480	     82.47999538	      0.00000000	      9.89060977	      1.43954749	      7.63097164	      0.00000000	      0.00000000	    101.16522078	    -35.94552051	     -5.08884922	     75.81997577	      0.00000000	     -9.91368000	      1.32330822	      2.70981672	      0.00000000	      0.00000000
      3.78000000	      8.39187540	    -37.82669198	      6.83011750	     -0.02583244	      0.60894693	     -1.12286497	    109.38556893	    -48.26044149	      6.02432837	     82.80194835	      0.00000000	      9.89096440	      1.44516663	      7.72950677	      0.00000000	      0.00000000	    101.44667398	    -36.07201909	     -4.97295197	     76.12287938	      0.00000000	     -9.91457453	      1.32859488	      2.72879395	      0.00000000	      0.00000000
